<svg width="18" height="18" viewBox="0 0 18 18" fill="none" xmlns="http://www.w3.org/2000/svg">
<path fill-rule="evenodd" clip-rule="evenodd" d="M12.3525 18.0005V11.03H14.6925L15.0426 8.31379H12.3516V6.57949C12.3516 5.79289 12.5703 5.25649 13.6989 5.25649H15.1371V2.82649C14.4406 2.75237 13.7405 2.71631 13.0401 2.71849C10.9665 2.71849 9.5472 3.98479 9.5472 6.30949V8.31379H7.2V11.03H9.5463V18.0005H0.9936C0.4446 18.0005 0 17.5559 0 17.0069V0.994088C0 0.445088 0.4446 0.000488281 0.9936 0.000488281H17.0064C17.5554 0.000488281 18 0.445088 18 0.994088V17.0069C18 17.5559 17.5554 18.0005 17.0064 18.0005H12.3525Z" fill="white"/>
</svg>
