<svg width="20" height="20" viewBox="0 0 20 20" fill="none" xmlns="http://www.w3.org/2000/svg">
<path d="M19.435 12.1566C19.5772 11.4904 19.6479 10.8108 19.646 10.1296C19.6388 8.88438 19.3863 7.65279 18.9028 6.50521C18.4194 5.35764 17.7146 4.31659 16.8286 3.44157C15.9426 2.56655 14.8929 1.87471 13.7394 1.4056C12.5859 0.936487 11.3512 0.699303 10.106 0.707602C9.56121 0.70594 9.01736 0.753128 8.481 0.848602C7.6483 0.325354 6.69124 0.0333746 5.70826 0.00269498C4.72529 -0.0279846 3.75189 0.203743 2.88818 0.674044C2.02446 1.14434 1.30163 1.83624 0.79401 2.67856C0.286395 3.52088 0.0123285 4.48323 0 5.4666C0.00043825 6.43602 0.260442 7.38764 0.753 8.2226C0.630672 8.84323 0.56739 9.47404 0.564 10.1066C0.574439 11.3433 0.830403 12.5656 1.31704 13.7025C1.80367 14.8395 2.51128 15.8685 3.39879 16.7298C4.28631 17.591 5.33605 18.2675 6.4871 18.7198C7.63814 19.1721 8.86756 19.3913 10.104 19.3646C10.6891 19.3689 11.2732 19.3133 11.847 19.1986C12.6389 19.6789 13.538 19.9545 14.463 20.0006C15.3959 20.0181 16.3175 19.795 17.1391 19.3529C17.9608 18.9108 18.6547 18.2645 19.1541 17.4764C19.6534 16.6882 19.9414 15.7848 19.9903 14.853C20.0391 13.9213 19.8472 12.9926 19.433 12.1566M14.438 13.9936C14.0242 14.5485 13.4604 14.9735 12.813 15.2186C12.0121 15.5374 11.1547 15.6895 10.293 15.6656C9.2918 15.6981 8.29759 15.4881 7.395 15.0536C6.86696 14.7724 6.41425 14.3684 6.075 13.8756C5.77399 13.4639 5.60206 12.9721 5.581 12.4626C5.57864 12.333 5.60494 12.2045 5.65801 12.0863C5.71108 11.968 5.78962 11.863 5.888 11.7786C6.09968 11.5865 6.37836 11.4852 6.664 11.4966C6.89514 11.4868 7.12182 11.5623 7.301 11.7086C7.49751 11.892 7.65028 12.1172 7.748 12.3676C7.86888 12.6815 8.0357 12.9757 8.243 13.2406C8.43288 13.4892 8.68457 13.6836 8.973 13.8046C9.36782 13.9712 9.79362 14.0516 10.222 14.0406C10.8278 14.0738 11.429 13.9176 11.942 13.5936C12.1401 13.4779 12.3049 13.313 12.4206 13.1148C12.5362 12.9167 12.5987 12.692 12.602 12.4626C12.6086 12.3006 12.5805 12.139 12.5194 11.9887C12.4584 11.8385 12.3658 11.7031 12.248 11.5916C11.9885 11.3456 11.6726 11.167 11.328 11.0716C10.952 10.9546 10.433 10.8366 9.798 10.6956C9.06751 10.5412 8.35055 10.3285 7.654 10.0596C7.11907 9.84513 6.64856 9.49621 6.288 9.0466C5.94687 8.59296 5.7721 8.03581 5.793 7.4686C5.79236 6.88949 5.98289 6.32637 6.335 5.8666C6.73376 5.36947 7.26377 4.99396 7.865 4.7826C8.62883 4.51343 9.43539 4.38601 10.245 4.4066C10.8827 4.39825 11.518 4.48521 12.13 4.6646C12.6058 4.80259 13.0525 5.02625 13.448 5.3246C13.7635 5.55979 14.0282 5.85642 14.226 6.1966C14.3771 6.46194 14.4583 6.7613 14.462 7.0666C14.4625 7.19941 14.4354 7.33088 14.3826 7.45273C14.3298 7.57458 14.2523 7.68417 14.155 7.7746C14.0583 7.87594 13.9411 7.95561 13.8113 8.00835C13.6815 8.0611 13.542 8.08572 13.402 8.0806C13.1744 8.09398 12.9493 8.02709 12.766 7.8916C12.5768 7.71488 12.4178 7.50851 12.295 7.2806C12.1075 6.90653 11.8423 6.57683 11.517 6.3136C11.0813 6.04115 10.569 5.91729 10.057 5.9606C9.52826 5.93591 9.00391 6.06699 8.549 6.3376C8.38554 6.42554 8.24761 6.55426 8.14861 6.71126C8.0496 6.86826 7.9929 7.0482 7.984 7.2336C7.98506 7.43712 8.05091 7.63502 8.172 7.7986C8.31794 7.97351 8.50385 8.11071 8.714 8.1986C8.92879 8.3159 9.15858 8.40337 9.397 8.4586C9.633 8.5286 10.01 8.6226 10.551 8.7406C11.211 8.8826 11.824 9.0466 12.366 9.2116C12.8567 9.35709 13.3243 9.57121 13.755 9.8476C14.1217 10.0887 14.428 10.411 14.65 10.7896C14.8771 11.2171 14.9908 11.6957 14.98 12.1796C15.0081 12.828 14.8172 13.4669 14.438 13.9936Z" fill="white"/>
</svg>
