<svg width="18" height="14" viewBox="0 0 18 14" fill="none" xmlns="http://www.w3.org/2000/svg">
<path d="M17.3333 1.8301C16.7092 2.10675 16.0471 2.28821 15.3692 2.36844C16.0835 1.94132 16.6181 1.26897 16.8733 0.476772C16.2022 0.875498 15.4677 1.15623 14.7017 1.30677C14.2323 0.807125 13.6237 0.460012 12.9547 0.310444C12.2857 0.160877 11.5872 0.215754 10.9498 0.46796C10.3123 0.720166 9.76539 1.15807 9.37984 1.72488C8.99428 2.29169 8.78792 2.96126 8.7875 3.64677C8.78703 3.90897 8.81639 4.17037 8.875 4.42594C7.51563 4.35769 6.1858 4.00437 4.97182 3.38891C3.75785 2.77345 2.68684 1.90961 1.82833 0.853438C1.39105 1.60623 1.25708 2.49738 1.4537 3.34547C1.65032 4.19356 2.16274 4.93485 2.88666 5.41844C2.34327 5.40178 1.81177 5.25519 1.33666 4.99094V5.03427C1.3368 5.82383 1.61005 6.58903 2.11007 7.20008C2.61008 7.81113 3.30608 8.2304 4.08 8.38677C3.7864 8.4666 3.48342 8.50668 3.17916 8.50594C2.96304 8.50604 2.74738 8.48595 2.535 8.44594C2.75337 9.12523 3.17855 9.71932 3.75109 10.1451C4.32364 10.571 5.01493 10.8072 5.72833 10.8209C4.29451 11.9431 2.47451 12.4516 0.666664 12.2351C2.23004 13.2401 4.04979 13.7736 5.90833 13.7718C7.18814 13.7804 8.45691 13.5347 9.64096 13.0489C10.825 12.5631 11.9007 11.8469 12.8057 10.9419C13.7106 10.0368 14.4267 8.96105 14.9124 7.77696C15.3981 6.59287 15.6437 5.32408 15.635 4.04427C15.635 3.89594 15.6314 3.74872 15.6242 3.6026C16.2946 3.11794 16.8734 2.51773 17.3333 1.8301Z" fill="white"/>
</svg>
